<svg
   xmlns:dc="http://purl.org/dc/elements/1.1/"
   xmlns:cc="http://creativecommons.org/ns#"
   xmlns:rdf="http://www.w3.org/1999/02/22-rdf-syntax-ns#"
   xmlns:svg="http://www.w3.org/2000/svg"
   xmlns="http://www.w3.org/2000/svg"
   xmlns:sodipodi="http://sodipodi.sourceforge.net/DTD/sodipodi-0.dtd"
   xmlns:inkscape="http://www.inkscape.org/namespaces/inkscape"
   version="1.0"
   class="microstories-logo"
   id="microstories-logo"
   x="0px"
   y="0px"
   width="320"
   height="80"
   viewBox="0 0 320 80.000002"
   enable-background="new 0 0 333 81.698"
   xml:space="preserve"
   inkscape:version="0.48.4 r9939"
   sodipodi:docname="microstories-logo.svg"><metadata
     id="metadata95"><rdf:RDF><cc:Work
         rdf:about=""><dc:format>image/svg+xml</dc:format><dc:type
           rdf:resource="http://purl.org/dc/dcmitype/StillImage" /><dc:title /></cc:Work></rdf:RDF></metadata><defs
     id="defs93" /><sodipodi:namedview
     pagecolor="#ffffff"
     bordercolor="#666666"
     borderopacity="1"
     objecttolerance="10"
     gridtolerance="10"
     guidetolerance="10"
     inkscape:pageopacity="0"
     inkscape:pageshadow="2"
     inkscape:window-width="873"
     inkscape:window-height="682"
     id="namedview91"
     showgrid="false"
     inkscape:zoom="2.0900901"
     inkscape:cx="166.5"
     inkscape:cy="40.848999"
     inkscape:window-x="0"
     inkscape:window-y="24"
     inkscape:window-maximized="0"
     inkscape:current-layer="g19" /><g
     id="g3"
     transform="translate(0,-1.6979981)"><path
       d="M 15.433,86.648 C 4.773,74.306 -9.252,64.769 -17.667,50.744 -7.008,50.183 2.529,58.598 13.75,58.037 12.067,45.133 -4.763,32.23 -10.935,19.327 c 10.098,-3.927 22.44,6.171 31.978,7.854 1.122,-9.537 -3.927,-33.099 2.244,-41.514 14.025,8.415 25.246,17.392 38.149,28.611 3.927,-9.536 14.024,-20.196 21.878,-26.367 5.61,9.538 7.854,19.075 18.513,24.685 8.976,-7.854 15.708,-12.903 24.123,-21.879 5.61,4.488 15.147,23.563 21.879,24.124 6.732,0.561 20.196,-17.391 26.368,-21.318 4.488,3.366 14.025,21.879 19.074,23.001 7.293,1.123 24.124,-17.391 32.539,-20.757 2.244,15.708 -4.488,29.733 15.708,18.513 8.416,-5.049 16.27,-10.659 25.246,-14.025 2.244,10.659 0,22.44 0.561,32.539 16.27,1.683 32.539,-1.122 48.247,0 -7.293,8.976 -19.074,16.269 -29.172,21.879 9.537,6.732 21.879,11.22 32.538,15.708 -8.976,7.854 -29.172,10.075 -40.953,12.319 H 206.176 L 141.66,82.722 H 44.044 L 11.824,82.7"
       id="path5"
       inkscape:connector-curvature="0" /></g><g
     id="g7"
     transform="translate(14,0.30200191)"><g
       id="g9"><path
         class="microstories-logo-letter"
         d="M 34.087,53.557 C 33.13,53.703 32.091,54.604 29.907,40.247 27.029,21.334 29.125,21.72 29.776,21.621 l 3.522,-0.536 c 1.492,-0.227 2.029,-0.309 4.295,1.971 4.351,4.392 5.005,7.152 5.771,7.035 0.574,-0.087 0.379,-2.917 3.686,-8.475 1.748,-2.93 2.328,-2.978 3.821,-3.206 l 2.986,-0.455 c 0.651,-0.099 2.536,-1.09 5.415,17.822 2.185,14.356 0.926,13.805 -0.032,13.951 l -4.9,0.746 c -0.459,0.07 -1.36,0.324 -1.465,-0.365 -0.082,-0.537 1.052,-7.759 -0.469,-17.752 -0.122,-0.804 -0.725,-5.531 -1.988,-5.338 -1.11,0.169 -1.988,4.182 -2.231,5.158 -2.021,8.338 -0.173,11.739 -2.737,12.129 -3.217,0.489 -2.501,-3.302 -7.103,-10.632 -0.511,-0.784 -2.363,-4.459 -3.55,-4.279 -1.264,0.192 -0.508,4.896 -0.386,5.7 1.521,9.993 4.981,16.516 5.063,17.053 0.104,0.689 -0.832,0.715 -1.291,0.785 l -4.096,0.624 z"
         id="path11"
         inkscape:connector-curvature="0"
         style="fill:#939598" /><path
         class="microstories-logo-letter"
         d="m 62.359,37.777 c -1.41,-9.265 3.021,-14.641 8.151,-15.421 4.211,-0.641 8.134,1.192 8.821,5.709 1.252,8.231 -11.338,8.385 -10.732,12.366 0.273,1.8 3.382,2.659 5.296,2.367 6.278,-0.955 5.55,-5.741 6.086,-5.823 0.575,-0.087 0.993,1.887 1.04,2.193 0.74,4.862 -2.587,8.229 -7.182,8.927 -6.852,1.043 -10.547,-4.193 -11.48,-10.318 z M 66.952,33.2 c 0.064,0.421 0.32,0.814 0.817,0.738 0.459,-0.07 7.194,-2.662 6.897,-4.615 -0.286,-1.876 -2.205,-2.641 -3.659,-2.42 -3.101,0.472 -4.394,4.076 -4.055,6.297 z"
         id="path13"
         inkscape:connector-curvature="0"
         style="fill:#939598" /><path
         class="microstories-logo-letter"
         d="m 91.976,19.247 c 0.395,0.019 0.674,0.054 0.789,0.037 1.762,-0.269 2.259,-3.948 3.79,-4.181 1.034,-0.158 3.554,2.241 3.647,2.853 0.174,1.148 -3.561,0.542 -3.258,2.532 0.175,1.149 2.244,1.618 2.873,5.753 0.605,3.981 -1.28,8.577 -6.985,9.445 -2.105,0.32 -4.473,2.013 -4.304,3.123 0.111,0.728 0.811,1.209 1.5,1.104 1.608,-0.245 4.494,-2.643 8.093,-3.191 0.881,-0.134 4.187,0.225 4.396,1.604 0.152,0.996 -0.727,5.517 -1.876,5.691 -0.957,0.146 -1.287,-1.763 -3.431,-1.437 -1.148,0.175 -2.266,0.815 -3.454,1.505 -1.155,0.646 -2.38,1.342 -3.835,1.563 -3.025,0.46 -5.782,-0.923 -6.259,-4.062 -0.682,-4.479 3.619,-5.565 3.456,-6.637 -0.14,-0.919 -3.152,-2.184 -3.782,-6.319 -0.764,-5.015 1.877,-8.512 7.008,-9.292 0.651,-0.099 1.198,-0.105 1.632,-0.091 z m 3.23,7.067 c -0.373,-2.45 -2.241,-3.654 -4.309,-3.34 -2.066,0.315 -3.492,2.021 -3.119,4.47 0.344,2.259 2.049,3.684 4.308,3.34 2.068,-0.314 3.493,-2.019 3.12,-4.47 z"
         id="path15"
         inkscape:connector-curvature="0"
         style="fill:#939598" /><path
         class="microstories-logo-letter"
         d="m 112.527,25.324 c 1.082,-0.361 1.933,-0.686 1.741,-1.949 -0.297,-1.953 -2.484,-2.677 -4.168,-2.421 -3.904,0.594 -2.83,3.799 -3.672,3.928 -1.225,0.187 -2.792,-1.104 -3.043,-2.75 -0.431,-2.833 2.467,-5.155 5.989,-5.691 1.225,-0.187 6.464,-1.023 9.232,4.04 1.143,2.099 2.944,13.42 3.147,14.76 0.256,1.685 0.714,2.633 0.912,3.935 0.123,0.805 -3.465,1.429 -6.873,1.947 -9.227,1.404 -10.6,-3.244 -10.95,-5.542 -0.733,-4.824 3.508,-8.877 7.685,-10.257 z m 3.394,6.339 c -0.204,-1.34 -0.219,-2.984 -2.057,-2.704 -2.259,0.344 -4.341,2.62 -3.986,4.956 0.326,2.144 2.395,3.122 4.424,2.813 2.259,-0.344 2.161,-1.504 1.875,-3.38 l -0.256,-1.685 z"
         id="path17"
         inkscape:connector-curvature="0"
         style="fill:#939598" /></g><g
       id="g19"><path
         class="microstories-logo-letter"
         d="m 82.119,76.529 c -0.645,0.025 -1.4,0.546 -1.782,-9.129 -0.503,-12.747 0.857,-12.335 1.295,-12.353 l 2.374,-0.093 c 1.006,-0.04 1.368,-0.054 2.7,1.625 2.557,3.232 2.786,5.11 3.302,5.089 0.387,-0.015 0.467,-1.905 3.071,-5.341 1.375,-1.812 1.764,-1.801 2.77,-1.841 l 2.012,-0.079 c 0.438,-0.018 1.763,-0.535 2.266,12.211 0.382,9.675 -0.411,9.216 -1.056,9.241 l -3.302,0.13 c -0.31,0.012 -0.926,0.114 -0.944,-0.35 -0.015,-0.361 1.273,-5.063 1.007,-11.798 -0.021,-0.542 -0.07,-3.718 -0.921,-3.685 -0.749,0.029 -1.627,2.623 -1.861,3.252 -1.958,5.375 -0.985,7.766 -2.714,7.834 -2.167,0.085 -1.412,-2.374 -3.917,-7.573 -0.28,-0.558 -1.234,-3.129 -2.035,-3.098 -0.851,0.034 -0.7,3.207 -0.679,3.748 0.266,6.735 2.075,11.315 2.089,11.676 0.019,0.465 -0.604,0.411 -0.914,0.424 l -2.761,0.11 z"
         id="path21"
         inkscape:connector-curvature="0"
         style="fill:#939598" /><path
         class="microstories-logo-letter"
         d="m 104.332,75.651 c -1.264,0.05 -1.346,0.596 -1.705,-8.486 -0.349,-8.825 0.098,-7.989 0.95,-8.023 l 1.419,-0.056 c 1.083,-0.043 1.112,0.034 1.125,0.343 0.038,0.955 -0.235,1.921 -0.124,4.734 0.257,6.502 1.421,10.461 1.43,10.694 0.033,0.826 -0.748,0.701 -1.341,0.725 l -1.754,0.069 z"
         id="path23"
         inkscape:connector-curvature="0"
         style="fill:#939598" /><path
         class="microstories-logo-letter"
         d="m 108.888,68.028 c -0.175,-4.438 1.87,-9.558 6.953,-9.759 2.245,-0.089 3.918,1.06 3.977,2.53 0.031,0.774 -0.478,2.293 -1.432,2.331 -0.594,0.023 -0.566,-1.89 -2.656,-1.807 -2.658,0.105 -3.473,3.652 -3.388,5.819 0.099,2.502 1.367,4.545 3.819,4.449 2.787,-0.11 3.331,-2.69 3.563,-2.699 0.129,-0.005 0.405,0.449 0.447,1.507 0.123,3.096 -1.841,5.086 -4.885,5.206 -4.283,0.17 -6.249,-3.81 -6.398,-7.577 z"
         id="path25"
         inkscape:connector-curvature="0"
         style="fill:#939598" /><path
         class="microstories-logo-letter"
         d="m 123.861,74.879 c -0.954,0.038 -1.387,0.856 -1.724,-7.684 -0.283,-7.147 -0.552,-8.739 0.169,-8.793 l 2.142,-0.084 c 0.387,-0.015 0.846,-0.162 0.891,0.327 0.067,0.385 0.139,0.873 0.654,0.852 0.387,-0.015 0.81,-0.445 1.334,-0.879 0.527,-0.408 1.13,-0.846 1.827,-0.874 1.315,-0.052 2.444,1.041 2.5,2.435 0.071,1.806 -1.357,2.948 -2.13,2.979 -0.31,0.012 -0.017,-1.731 -1.797,-1.661 -2.167,0.085 -2.185,3.575 -2.123,5.124 0.203,5.134 1.166,7.267 1.184,7.731 -0.01,0.414 -0.577,0.436 -0.861,0.447 l -2.066,0.08 z"
         id="path27"
         inkscape:connector-curvature="0"
         style="fill:#939598" /><path
         class="microstories-logo-letter"
         d="m 132.435,66.246 c -0.164,-4.154 1.646,-8.697 6.136,-8.874 4.49,-0.177 6.653,4.208 6.817,8.362 0.24,6.064 -3.167,8.809 -6.134,8.926 -2.967,0.116 -6.58,-2.351 -6.819,-8.414 z m 9.728,-1.031 c -0.081,-2.038 -0.917,-4.899 -3.472,-4.798 -2.554,0.101 -3.163,3.019 -3.082,5.058 0.082,2.064 0.869,4.979 3.475,4.876 2.605,-0.103 3.16,-3.072 3.079,-5.136 z"
         id="path29"
         inkscape:connector-curvature="0"
         style="fill:#939598" /><path
         class="microstories-logo-letter"
         d="m 147.094,69.724 c -0.048,-1.212 0.51,-2.785 0.717,-2.793 0.129,-0.005 0.928,3.866 4.592,3.721 1.058,-0.042 2.274,-0.633 2.223,-1.949 -0.105,-2.658 -7.044,-1.686 -7.247,-6.82 -0.125,-3.148 2.337,-4.951 5.124,-5.061 3.226,-0.127 5.083,1.738 5.103,2.254 0.019,0.49 -1.343,2.637 -1.937,2.661 -0.671,0.026 -0.904,-1.954 -3.278,-1.86 -0.8,0.032 -1.869,0.436 -1.839,1.209 0.105,2.657 7.637,2.309 7.844,7.547 0.133,3.354 -2.579,5.374 -5.674,5.496 -2.736,0.106 -5.508,-1.386 -5.628,-4.405 z"
         id="path31"
         inkscape:connector-curvature="0"
         style="fill:#939598" /><path
         class="microstories-logo-letter"
         d="m 166.039,53.445 c 0.027,0.696 -0.685,2.301 -0.672,2.61 0.018,0.464 0.16,0.769 0.546,0.753 0.336,-0.013 0.64,-0.154 0.976,-0.167 0.98,-0.039 1.034,0.656 1.068,1.534 0.014,0.361 0.053,1.342 -0.489,1.363 -0.207,0.008 -0.731,-0.203 -1.196,-0.185 -1.419,0.056 -1.354,1.707 -1.264,4.003 0.271,6.863 1.761,7.941 1.778,8.38 0.016,0.387 -2.921,1.951 -3.514,1.974 -0.98,0.039 -1.466,-5.706 -1.521,-7.125 -0.125,-3.174 -0.02,-4.418 -0.039,-4.908 -0.031,-0.775 0.148,-2.151 -1.014,-2.105 -0.464,0.019 -0.71,0.338 -0.994,0.349 -0.335,0.013 -0.323,-0.323 -0.341,-0.787 -0.078,-1.961 0.481,-2.216 1.462,-2.255 0.103,-0.004 0.288,0.092 0.494,0.084 0.8,-0.032 0.827,-1.299 0.92,-2.208 0.09,-0.985 2.952,-1.822 3.467,-1.842 0.182,-0.005 0.313,0.041 0.333,0.532 z"
         id="path33"
         inkscape:connector-curvature="0"
         style="fill:#939598" /><path
         class="microstories-logo-letter"
         d="m 169.173,64.794 c -0.164,-4.154 1.646,-8.697 6.136,-8.874 4.489,-0.178 6.653,4.208 6.817,8.362 0.239,6.063 -3.167,8.809 -6.134,8.926 -2.968,0.117 -6.579,-2.35 -6.819,-8.414 z m 9.728,-1.03 c -0.081,-2.038 -0.917,-4.899 -3.472,-4.798 -2.555,0.101 -3.163,3.019 -3.082,5.057 0.082,2.064 0.868,4.98 3.475,4.876 2.606,-0.103 3.16,-3.071 3.079,-5.135 z"
         id="path35"
         inkscape:connector-curvature="0"
         style="fill:#939598" /><path
         class="microstories-logo-letter"
         d="m 185.625,72.439 c -0.955,0.038 -1.387,0.856 -1.725,-7.684 -0.282,-7.147 -0.552,-8.739 0.17,-8.793 l 2.141,-0.085 c 0.387,-0.015 0.846,-0.162 0.891,0.327 0.067,0.385 0.138,0.873 0.654,0.852 0.387,-0.015 0.809,-0.445 1.334,-0.879 0.527,-0.408 1.129,-0.846 1.826,-0.874 1.316,-0.052 2.444,1.041 2.5,2.435 0.071,1.806 -1.356,2.947 -2.131,2.979 -0.31,0.012 -0.017,-1.731 -1.797,-1.661 -2.167,0.085 -2.184,3.575 -2.123,5.124 0.203,5.134 1.166,7.267 1.184,7.731 -0.01,0.414 -0.577,0.437 -0.86,0.447 l -2.064,0.081 z"
         id="path37"
         inkscape:connector-curvature="0"
         style="fill:#939598" /><path
         class="microstories-logo-letter"
         d="m 194.655,51.822 c -0.044,-1.109 0.884,-1.818 1.917,-1.859 1.032,-0.041 2.014,0.593 2.057,1.702 0.044,1.11 -0.887,1.741 -1.919,1.782 -1.032,0.041 -2.011,-0.515 -2.055,-1.625 z m 1.883,20.186 c -1.264,0.05 -1.346,0.596 -1.705,-8.486 -0.349,-8.825 0.098,-7.989 0.949,-8.023 l 1.419,-0.056 c 1.083,-0.043 1.112,0.034 1.125,0.343 0.038,0.955 -0.234,1.921 -0.123,4.734 0.257,6.502 1.421,10.461 1.43,10.694 0.033,0.826 -0.748,0.701 -1.341,0.725 l -1.754,0.069 z"
         id="path39"
         inkscape:connector-curvature="0"
         style="fill:#939598" /><path
         class="microstories-logo-letter"
         d="m 201.089,64.257 c -0.247,-6.244 3.088,-9.478 6.546,-9.614 2.838,-0.112 5.301,1.394 5.421,4.438 0.219,5.547 -8.135,4.714 -8.029,7.397 0.047,1.213 2.043,2.013 3.334,1.962 4.231,-0.167 4.104,-3.393 4.465,-3.407 0.387,-0.016 0.517,1.324 0.525,1.53 0.129,3.276 -2.325,5.261 -5.42,5.383 -4.619,0.183 -6.679,-3.56 -6.842,-7.689 z m 3.383,-2.692 c 0.011,0.284 0.151,0.563 0.487,0.549 0.31,-0.012 4.964,-1.23 4.913,-2.546 -0.05,-1.264 -1.264,-1.914 -2.245,-1.875 -2.091,0.083 -3.214,2.375 -3.155,3.872 z"
         id="path41"
         inkscape:connector-curvature="0"
         style="fill:#939598" /><path
         class="microstories-logo-letter"
         d="m 215.229,67.032 c -0.048,-1.213 0.51,-2.785 0.717,-2.793 0.129,-0.005 0.928,3.865 4.592,3.721 1.058,-0.042 2.274,-0.633 2.223,-1.949 -0.105,-2.657 -7.044,-1.686 -7.247,-6.82 -0.125,-3.148 2.337,-4.951 5.124,-5.061 3.225,-0.127 5.082,1.738 5.103,2.254 0.02,0.49 -1.343,2.637 -1.937,2.661 -0.671,0.026 -0.904,-1.955 -3.277,-1.861 -0.801,0.032 -1.87,0.436 -1.839,1.209 0.105,2.658 7.637,2.309 7.844,7.547 0.133,3.354 -2.579,5.374 -5.674,5.496 -2.737,0.108 -5.509,-1.385 -5.629,-4.404 z"
         id="path43"
         inkscape:connector-curvature="0"
         style="fill:#939598" /><path
         class="microstories-logo-letter"
         d="m 248.073,41.055 c 1.394,0.652 2.244,0.285 -0.429,6 -1.761,3.764 -8.416,13.904 -10.02,13.154 -0.941,-0.44 -2.374,-1.281 -2.212,-1.63 0.327,-0.696 2.84,-4.617 4.471,-8.103 2.282,-4.879 1.763,-10.941 2.024,-11.5 0.277,-0.592 1.077,-0.304 1.531,-0.092 l 4.635,2.171 z m -15.727,28.62 c -2.16,-1.011 -3.155,-3.515 -2.145,-5.676 1.012,-2.16 3.572,-3.002 5.767,-1.975 2.092,0.979 3.035,3.501 2.056,5.592 -0.994,2.126 -3.518,3.071 -5.678,2.059 z"
         id="path45"
         inkscape:connector-curvature="0"
         style="fill:#939598" /><path
         class="microstories-logo-letter"
         d="m 13.047452,49.79707 c -1.526916,-0.191999 -2.222974,0.418484 -1.43585,-5.841437 0.518909,-4.123051 3.735289,-15.817645 5.492159,-15.596933 1.030683,0.129488 2.652803,0.489353 2.605906,0.87125 -0.09726,0.762816 -1.283511,5.266392 -1.764154,9.084943 -0.671998,5.344212 1.685021,10.953281 1.608464,11.565442 -0.08164,0.648483 -0.931435,0.6203 -1.428619,0.558098 L 13.047452,49.79707 z m 6.169484,-32.068373 c 2.366179,0.298194 4.082619,2.375185 3.785684,4.742008 -0.29915,2.366484 -2.47645,3.954539 -4.880847,3.651879 -2.291635,-0.288643 -3.964129,-2.398746 -3.67518,-4.68943 0.292472,-2.328597 2.40386,-4.003602 4.770343,-3.704457 z"
         id="path45-8"
         inkscape:connector-curvature="0"
         style="fill:#939598" /></g><g
       id="g47"><g
         id="g49"><path
           d="m 83.395,41.022 c 0.001,2.208 0.27,4.129 1.236,6.135 0.591,1.228 2.316,1.544 3.42,0.897 1.245,-0.729 1.488,-2.193 0.897,-3.42 -0.621,-1.288 -0.553,-2.092 -0.554,-3.611 -0.001,-3.225 -5.001,-3.226 -4.999,-0.001 l 0,0 z"
           id="path51"
           inkscape:connector-curvature="0" /></g></g><g
       id="g53"><g
         id="g55"><g
           id="g57"><path
             class="microstories-logo-letter"
             d="m 98.906,42.385 c 4.36,2.711 -3.235,4.955 -4.97,5.28 -1.148,0.215 -2.791,0.336 -3.896,-0.15 -2.014,-0.886 -0.729,-3.871 -0.949,-5.598 -0.402,-3.153 -5.407,-3.192 -5,0 0.437,3.429 -1.13,7.118 2.568,9.389 3.068,1.884 6.562,1.676 9.968,0.898 3.022,-0.69 6.039,-2.264 7.75,-4.912 2.025,-3.136 -0.125,-7.47 -2.946,-9.224 -2.748,-1.708 -5.256,2.619 -2.525,4.317 l 0,0 z"
             id="path59"
             inkscape:connector-curvature="0"
             style="fill:#939598" /></g></g><g
         id="g61"><g
           id="g63"><path
             class="microstories-logo-letter"
             d="m 100.91,42.229 c -0.751,-0.066 0.268,0.192 -0.473,-0.146 0.453,0.206 -0.406,-0.4 -0.075,-0.054 -0.077,-0.097 -0.155,-0.193 -0.232,-0.29 0.123,0.228 0.099,0.153 -0.073,-0.225 0.054,0.133 0.085,0.276 0.118,0.416 0.124,0.53 -0.058,-0.62 -0.005,-0.068 0.015,0.153 0.02,0.307 0.025,0.46 0.011,0.295 0.005,0.592 0.005,0.887 -0.002,1.363 1.139,2.5 2.5,2.5 1.365,0 2.498,-1.137 2.5,-2.5 0.002,-1.043 0.021,-2.173 -0.374,-3.154 -0.711,-1.764 -2.035,-2.66 -3.917,-2.827 -1.359,-0.121 -2.5,1.229 -2.5,2.5 10e-4,1.455 1.144,2.381 2.501,2.501 l 0,0 z"
             id="path65"
             inkscape:connector-curvature="0"
             style="fill:#939598" /></g></g><g
         id="g67"><g
           id="g69"><path
             class="microstories-logo-letter"
             d="m 99.106,41.122 c 0.025,1.563 0.343,3.104 0.586,4.643 0.213,1.348 1.874,2.077 3.075,1.746 1.423,-0.391 1.958,-1.73 1.746,-3.075 -0.205,-1.299 -0.388,-2.072 -0.408,-3.313 -0.021,-1.362 -1.121,-2.5 -2.5,-2.5 -1.345,-10e-4 -2.52,1.136 -2.499,2.499 l 0,0 z"
             id="path71"
             inkscape:connector-curvature="0"
             style="fill:#939598" /></g></g><g
         id="g73"><g
           id="g75"><path
             class="microstories-logo-letter"
             d="m 88.948,46.025 c -0.772,-1.612 -0.467,-3.575 -0.454,-5.302 0.024,-3.226 -4.976,-3.223 -5,0 -0.021,2.753 -0.082,5.282 1.137,7.825 0.588,1.229 2.318,1.542 3.42,0.897 1.247,-0.729 1.486,-2.191 0.897,-3.42 l 0,0 z"
             id="path77"
             inkscape:connector-curvature="0"
             style="fill:#939598" /></g></g><g
         id="g79"><g
           id="g81"><path
             class="microstories-logo-letter"
             d="m 83.086,40.656 c -0.735,3.608 -0.747,7.421 2.74,9.585 2.748,1.706 5.256,-2.621 2.523,-4.317 -1.23,-0.764 -0.684,-2.751 -0.442,-3.939 0.642,-3.148 -4.177,-4.487 -4.821,-1.329 l 0,0 z"
             id="path83"
             inkscape:connector-curvature="0"
             style="fill:#939598" /></g></g></g><g
       id="g85"><g
         id="g87"><path
           class="microstories-logo-letter"
           d="m 104.724,54.97 c -0.55,-0.014 -1.45,-0.041 -1.011,-0.858 0.298,-0.556 1.856,-0.289 2.315,-0.25 -0.205,-0.017 0.327,0.189 0.047,0.038 -0.281,-0.153 -0.341,-0.553 -0.226,-0.081 0.036,0.148 10e-4,0.874 -0.08,0.973 -0.228,0.282 -1.378,0.186 -2.005,0.184 -2.418,-0.01 -2.418,3.74 0,3.75 2.474,0.01 4.709,-0.367 5.612,-2.989 0.43,-1.251 0.279,-2.843 -0.335,-4 -0.604,-1.136 -1.851,-1.469 -3.014,-1.625 -2.544,-0.34 -5.386,0.625 -6.044,3.354 -0.762,3.163 1.872,5.184 4.74,5.254 2.421,0.059 2.415,-3.691 0.001,-3.75 l 0,0 z"
           id="path89"
           inkscape:connector-curvature="0"
           style="fill:#939598" /></g></g></g></svg>