<?xml version="1.0" encoding="UTF-8"?><svg class="microstories-logo" viewBox="0 0 337.54 138.79" xmlns="http://www.w3.org/2000/svg"><path class="microstories-logo-bg" d="m41.888 3.6577c-6.171 8.415-1.1221 31.977-2.2441 41.514-9.538-1.683-21.881-11.781-31.979-7.8535 6.172 12.903 23.003 25.805 24.686 38.709-11.221 0.561-20.759-7.854-31.418-7.293 7.5266 12.544 19.525 21.512 29.605 32.094-4.1048 7.5614-9.5914 17.033-10.604 24.463 9.3774-2.0033 19.104-4.6247 27.715-9.1094 6.936-5.8868 19.012-12.686 20.07 1.8242 2.2203 3.3865 4.4929 15.653 9.5762 8.5039-1.7079 2.0335 6.9247-6.8368 9.8887-8.7871 5.9033-5.9912 16.924-19.953 22.957-6.4512 6.5858 7.3833 9.8158 21.831 18.174 24.988 9.6645-8.9868 16.129-21.031 26.801-28.996 12.263 2.0609 19.584 13.675 29.826 19.729 6.2911 3.9897 20.539 20.789 21.475 5.4688 1.4344-8.7141 5.6244-28.66 16.99-16.852 8.7842 6.6556 16.206 16.118 26.861 19.73 5.257-4.8877 0.25184-22.82 12.273-22.389 9.9019 8.7028 22.385 14.77 35.527 17.051 4.6243-2.0594 0.87439-14.747 1.2031-21.016-0.40049-2.8609-1.0692-5.6842-2.0352-8.4082 11.853-2.2085 31.47-4.4797 40.301-12.207-10.659-4.488-23-8.975-32.537-15.707 10.098-5.61 21.879-12.903 29.172-21.879-15.708-1.122-31.978 1.683-48.248 0-0.561-10.099 1.6835-21.88-0.56054-32.539-8.976 3.366-16.83 8.9764-25.246 14.025-20.196 11.22-13.465-2.8057-15.709-18.514-8.415 3.366-25.246 21.881-32.539 20.758-5.049-1.122-14.584-19.636-19.072-23.002-6.172 3.927-19.637 21.879-26.369 21.318-6.732-0.561-16.269-19.637-21.879-24.125-8.415 8.976-15.147 14.025-24.123 21.879-10.659-5.61-12.902-15.146-18.512-24.684-7.854 6.171-17.952 16.831-21.879 26.367-12.903-11.219-24.123-20.196-38.148-28.611zm-11.463 97.033h0.1875c-0.02216 0.0409-0.04807 0.0879-0.07031 0.1289z"/><path d="m40.955 0c-6.171 8.415-1.1221 31.977-2.2441 41.514-9.538-1.683-21.881-11.781-31.979-7.8535 6.172 12.903 23.003 25.805 24.686 38.709-11.221 0.561-20.759-7.854-31.418-7.293 7.5266 12.544 19.525 21.512 29.605 32.094-4.1048 7.5615-9.5914 17.033-10.604 24.463 9.3774-2.0033 19.104-4.6247 27.715-9.1094 6.936-5.8868 19.012-12.686 20.07 1.8242 2.2203 3.3865 4.4929 15.653 9.5762 8.5039-1.7079 2.0335 6.9247-6.8368 9.8887-8.7871 5.9033-5.9912 16.924-19.953 22.957-6.4512 6.5858 7.3833 9.8158 21.831 18.174 24.988 9.6645-8.9868 16.129-21.031 26.801-28.996 12.263 2.0609 19.584 13.675 29.826 19.729 6.2911 3.9897 20.539 20.789 21.475 5.4688 1.4344-8.7141 5.6244-28.66 16.99-16.852 8.7842 6.6556 16.206 16.118 26.861 19.73 5.257-4.8877 0.25184-22.82 12.273-22.389 9.9019 8.7028 22.385 14.77 35.527 17.051 4.6243-2.0594 0.87439-14.747 1.2031-21.016-0.40049-2.8609-1.0692-5.6842-2.0352-8.4082 11.853-2.2085 31.47-4.4797 40.301-12.207-10.659-4.488-23-8.975-32.537-15.707 10.098-5.61 21.879-12.903 29.172-21.879-15.708-1.122-31.978 1.683-48.248 0-0.561-10.099 1.6835-21.88-0.56054-32.539-8.976 3.366-16.83 8.9764-25.246 14.025-20.196 11.22-13.465-2.8057-15.709-18.514-8.415 3.366-25.246 21.881-32.539 20.758-5.049-1.122-14.584-19.636-19.072-23.002-6.172 3.927-19.637 21.879-26.369 21.318-6.732-0.561-16.269-19.637-21.879-24.125-8.415 8.976-15.147 14.025-24.123 21.879-10.659-5.61-12.902-15.146-18.512-24.684-7.854 6.171-17.952 16.831-21.879 26.367-12.903-11.219-24.123-20.196-38.148-28.611zm-11.463 97.033h0.1875c-0.02216 0.04086-0.04807 0.08793-0.07031 0.12891z"/><g transform="translate(31.667 20.333)"><g><path class="microstories-logo-letter" d="m34.087 53.557c-0.957 0.146-1.996 1.047-4.18-13.31-2.878-18.913-0.782-18.527-0.131-18.626l3.522-0.536c1.492-0.227 2.029-0.309 4.295 1.971 4.351 4.392 5.005 7.152 5.771 7.035 0.574-0.087 0.379-2.917 3.686-8.475 1.748-2.93 2.328-2.978 3.821-3.206l2.986-0.455c0.651-0.099 2.536-1.09 5.415 17.822 2.185 14.356 0.926 13.805-0.032 13.951l-4.9 0.746c-0.459 0.07-1.36 0.324-1.465-0.365-0.082-0.537 1.052-7.759-0.469-17.752-0.122-0.804-0.725-5.531-1.988-5.338-1.11 0.169-1.988 4.182-2.231 5.158-2.021 8.338-0.173 11.739-2.737 12.129-3.217 0.489-2.501-3.302-7.103-10.632-0.511-0.784-2.363-4.459-3.55-4.279-1.264 0.192-0.508 4.896-0.386 5.7 1.521 9.993 4.981 16.516 5.063 17.053 0.104 0.689-0.832 0.715-1.291 0.785z"/><path class="microstories-logo-letter" d="m62.359 37.777c-1.41-9.265 3.021-14.641 8.151-15.421 4.211-0.641 8.134 1.192 8.821 5.709 1.252 8.231-11.338 8.385-10.732 12.366 0.273 1.8 3.382 2.659 5.296 2.367 6.278-0.955 5.55-5.741 6.086-5.823 0.575-0.087 0.993 1.887 1.04 2.193 0.74 4.862-2.587 8.229-7.182 8.927-6.852 1.043-10.547-4.193-11.48-10.318zm4.593-4.577c0.064 0.421 0.32 0.814 0.817 0.738 0.459-0.07 7.194-2.662 6.897-4.615-0.286-1.876-2.205-2.641-3.659-2.42-3.101 0.472-4.394 4.076-4.055 6.297z"/><path class="microstories-logo-letter" d="m91.976 19.247c0.395 0.019 0.674 0.054 0.789 0.037 1.762-0.269 2.259-3.948 3.79-4.181 1.034-0.158 3.554 2.241 3.647 2.853 0.174 1.148-3.561 0.542-3.258 2.532 0.175 1.149 2.244 1.618 2.873 5.753 0.605 3.981-1.28 8.577-6.985 9.445-2.105 0.32-4.473 2.013-4.304 3.123 0.111 0.728 0.811 1.209 1.5 1.104 1.608-0.245 4.494-2.643 8.093-3.191 0.881-0.134 4.187 0.225 4.396 1.604 0.152 0.996-0.727 5.517-1.876 5.691-0.957 0.146-1.287-1.763-3.431-1.437-1.148 0.175-2.266 0.815-3.454 1.505-1.155 0.646-2.38 1.342-3.835 1.563-3.025 0.46-5.782-0.923-6.259-4.062-0.682-4.479 3.619-5.565 3.456-6.637-0.14-0.919-3.152-2.184-3.782-6.319-0.764-5.015 1.877-8.512 7.008-9.292 0.651-0.099 1.198-0.105 1.632-0.091zm3.23 7.067c-0.373-2.45-2.241-3.654-4.309-3.34-2.066 0.315-3.492 2.021-3.119 4.47 0.344 2.259 2.049 3.684 4.308 3.34 2.068-0.314 3.493-2.019 3.12-4.47z"/><path class="microstories-logo-letter" d="m112.53 25.324c1.082-0.361 1.933-0.686 1.741-1.949-0.297-1.953-2.484-2.677-4.168-2.421-3.904 0.594-2.83 3.799-3.672 3.928-1.225 0.187-2.792-1.104-3.043-2.75-0.431-2.833 2.467-5.155 5.989-5.691 1.225-0.187 6.464-1.023 9.232 4.04 1.143 2.099 2.944 13.42 3.147 14.76 0.256 1.685 0.714 2.633 0.912 3.935 0.123 0.805-3.465 1.429-6.873 1.947-9.227 1.404-10.6-3.244-10.95-5.542-0.733-4.824 3.508-8.877 7.685-10.257zm3.394 6.339c-0.204-1.34-0.219-2.984-2.057-2.704-2.259 0.344-4.341 2.62-3.986 4.956 0.326 2.144 2.395 3.122 4.424 2.813 2.259-0.344 2.161-1.504 1.875-3.38z"/></g><g><path class="microstories-logo-letter" d="m82.119 76.529c-0.645 0.025-1.4 0.546-1.782-9.129-0.503-12.747 0.857-12.335 1.295-12.353l2.374-0.093c1.006-0.04 1.368-0.054 2.7 1.625 2.557 3.232 2.786 5.11 3.302 5.089 0.387-0.015 0.467-1.905 3.071-5.341 1.375-1.812 1.764-1.801 2.77-1.841l2.012-0.079c0.438-0.018 1.763-0.535 2.266 12.211 0.382 9.675-0.411 9.216-1.056 9.241l-3.302 0.13c-0.31 0.012-0.926 0.114-0.944-0.35-0.015-0.361 1.273-5.063 1.007-11.798-0.021-0.542-0.07-3.718-0.921-3.685-0.749 0.029-1.627 2.623-1.861 3.252-1.958 5.375-0.985 7.766-2.714 7.834-2.167 0.085-1.412-2.374-3.917-7.573-0.28-0.558-1.234-3.129-2.035-3.098-0.851 0.034-0.7 3.207-0.679 3.748 0.266 6.735 2.075 11.315 2.089 11.676 0.019 0.465-0.604 0.411-0.914 0.424z"/><path class="microstories-logo-letter" d="m104.33 75.651c-1.264 0.05-1.346 0.596-1.705-8.486-0.349-8.825 0.098-7.989 0.95-8.023l1.419-0.056c1.083-0.043 1.112 0.034 1.125 0.343 0.038 0.955-0.235 1.921-0.124 4.734 0.257 6.502 1.421 10.461 1.43 10.694 0.033 0.826-0.748 0.701-1.341 0.725z"/><path class="microstories-logo-letter" d="m108.89 68.028c-0.175-4.438 1.87-9.558 6.953-9.759 2.245-0.089 3.918 1.06 3.977 2.53 0.031 0.774-0.478 2.293-1.432 2.331-0.594 0.023-0.566-1.89-2.656-1.807-2.658 0.105-3.473 3.652-3.388 5.819 0.099 2.502 1.367 4.545 3.819 4.449 2.787-0.11 3.331-2.69 3.563-2.699 0.129-5e-3 0.405 0.449 0.447 1.507 0.123 3.096-1.841 5.086-4.885 5.206-4.283 0.17-6.249-3.81-6.398-7.577z"/><path class="microstories-logo-letter" d="m123.86 74.879c-0.954 0.038-1.387 0.856-1.724-7.684-0.283-7.147-0.552-8.739 0.169-8.793l2.142-0.084c0.387-0.015 0.846-0.162 0.891 0.327 0.067 0.385 0.139 0.873 0.654 0.852 0.387-0.015 0.81-0.445 1.334-0.879 0.527-0.408 1.13-0.846 1.827-0.874 1.315-0.052 2.444 1.041 2.5 2.435 0.071 1.806-1.357 2.948-2.13 2.979-0.31 0.012-0.017-1.731-1.797-1.661-2.167 0.085-2.185 3.575-2.123 5.124 0.203 5.134 1.166 7.267 1.184 7.731-0.01 0.414-0.577 0.436-0.861 0.447z"/><path class="microstories-logo-letter" d="m132.44 66.246c-0.164-4.154 1.646-8.697 6.136-8.874s6.653 4.208 6.817 8.362c0.24 6.064-3.167 8.809-6.134 8.926-2.967 0.116-6.58-2.351-6.819-8.414zm9.728-1.031c-0.081-2.038-0.917-4.899-3.472-4.798-2.554 0.101-3.163 3.019-3.082 5.058 0.082 2.064 0.869 4.979 3.475 4.876 2.605-0.103 3.16-3.072 3.079-5.136z"/><path class="microstories-logo-letter" d="m147.09 69.724c-0.048-1.212 0.51-2.785 0.717-2.793 0.129-5e-3 0.928 3.866 4.592 3.721 1.058-0.042 2.274-0.633 2.223-1.949-0.105-2.658-7.044-1.686-7.247-6.82-0.125-3.148 2.337-4.951 5.124-5.061 3.226-0.127 5.083 1.738 5.103 2.254 0.019 0.49-1.343 2.637-1.937 2.661-0.671 0.026-0.904-1.954-3.278-1.86-0.8 0.032-1.869 0.436-1.839 1.209 0.105 2.657 7.637 2.309 7.844 7.547 0.133 3.354-2.579 5.374-5.674 5.496-2.736 0.106-5.508-1.386-5.628-4.405z"/><path class="microstories-logo-letter" d="m166.04 53.445c0.027 0.696-0.685 2.301-0.672 2.61 0.018 0.464 0.16 0.769 0.546 0.753 0.336-0.013 0.64-0.154 0.976-0.167 0.98-0.039 1.034 0.656 1.068 1.534 0.014 0.361 0.053 1.342-0.489 1.363-0.207 8e-3 -0.731-0.203-1.196-0.185-1.419 0.056-1.354 1.707-1.264 4.003 0.271 6.863 1.761 7.941 1.778 8.38 0.016 0.387-2.921 1.951-3.514 1.974-0.98 0.039-1.466-5.706-1.521-7.125-0.125-3.174-0.02-4.418-0.039-4.908-0.031-0.775 0.148-2.151-1.014-2.105-0.464 0.019-0.71 0.338-0.994 0.349-0.335 0.013-0.323-0.323-0.341-0.787-0.078-1.961 0.481-2.216 1.462-2.255 0.103-4e-3 0.288 0.092 0.494 0.084 0.8-0.032 0.827-1.299 0.92-2.208 0.09-0.985 2.952-1.822 3.467-1.842 0.182-5e-3 0.313 0.041 0.333 0.532z"/><path class="microstories-logo-letter" d="m169.17 64.794c-0.164-4.154 1.646-8.697 6.136-8.874 4.489-0.178 6.653 4.208 6.817 8.362 0.239 6.063-3.167 8.809-6.134 8.926-2.968 0.117-6.579-2.35-6.819-8.414zm9.728-1.03c-0.081-2.038-0.917-4.899-3.472-4.798s-3.163 3.019-3.082 5.057c0.082 2.064 0.868 4.98 3.475 4.876 2.606-0.103 3.16-3.071 3.079-5.135z"/><path class="microstories-logo-letter" d="m185.62 72.439c-0.955 0.038-1.387 0.856-1.725-7.684-0.282-7.147-0.552-8.739 0.17-8.793l2.141-0.085c0.387-0.015 0.846-0.162 0.891 0.327 0.067 0.385 0.138 0.873 0.654 0.852 0.387-0.015 0.809-0.445 1.334-0.879 0.527-0.408 1.129-0.846 1.826-0.874 1.316-0.052 2.444 1.041 2.5 2.435 0.071 1.806-1.356 2.947-2.131 2.979-0.31 0.012-0.017-1.731-1.797-1.661-2.167 0.085-2.184 3.575-2.123 5.124 0.203 5.134 1.166 7.267 1.184 7.731-0.01 0.414-0.577 0.437-0.86 0.447z"/><path class="microstories-logo-letter" d="m194.66 51.822c-0.044-1.109 0.884-1.818 1.917-1.859 1.032-0.041 2.014 0.593 2.057 1.702 0.044 1.11-0.887 1.741-1.919 1.782s-2.011-0.515-2.055-1.625zm1.883 20.186c-1.264 0.05-1.346 0.596-1.705-8.486-0.349-8.825 0.098-7.989 0.949-8.023l1.419-0.056c1.083-0.043 1.112 0.034 1.125 0.343 0.038 0.955-0.234 1.921-0.123 4.734 0.257 6.502 1.421 10.461 1.43 10.694 0.033 0.826-0.748 0.701-1.341 0.725z"/><path class="microstories-logo-letter" d="m201.09 64.257c-0.247-6.244 3.088-9.478 6.546-9.614 2.838-0.112 5.301 1.394 5.421 4.438 0.219 5.547-8.135 4.714-8.029 7.397 0.047 1.213 2.043 2.013 3.334 1.962 4.231-0.167 4.104-3.393 4.465-3.407 0.387-0.016 0.517 1.324 0.525 1.53 0.129 3.276-2.325 5.261-5.42 5.383-4.619 0.183-6.679-3.56-6.842-7.689zm3.383-2.692c0.011 0.284 0.151 0.563 0.487 0.549 0.31-0.012 4.964-1.23 4.913-2.546-0.05-1.264-1.264-1.914-2.245-1.875-2.091 0.083-3.214 2.375-3.155 3.872z"/><path class="microstories-logo-letter" d="m215.23 67.032c-0.048-1.213 0.51-2.785 0.717-2.793 0.129-5e-3 0.928 3.865 4.592 3.721 1.058-0.042 2.274-0.633 2.223-1.949-0.105-2.657-7.044-1.686-7.247-6.82-0.125-3.148 2.337-4.951 5.124-5.061 3.225-0.127 5.082 1.738 5.103 2.254 0.02 0.49-1.343 2.637-1.937 2.661-0.671 0.026-0.904-1.955-3.277-1.861-0.801 0.032-1.87 0.436-1.839 1.209 0.105 2.658 7.637 2.309 7.844 7.547 0.133 3.354-2.579 5.374-5.674 5.496-2.737 0.108-5.509-1.385-5.629-4.404z"/><path class="microstories-logo-letter" d="m248.07 41.055c1.394 0.652 2.244 0.285-0.429 6-1.761 3.764-8.416 13.904-10.02 13.154-0.941-0.44-2.374-1.281-2.212-1.63 0.327-0.696 2.84-4.617 4.471-8.103 2.282-4.879 1.763-10.941 2.024-11.5 0.277-0.592 1.077-0.304 1.531-0.092zm-15.727 28.62c-2.16-1.011-3.155-3.515-2.145-5.676 1.012-2.16 3.572-3.002 5.767-1.975 2.092 0.979 3.035 3.501 2.056 5.592-0.994 2.126-3.518 3.071-5.678 2.059z"/><path class="microstories-logo-letter" d="m13.047 49.797c-1.5269-0.192-2.223 0.41848-1.4358-5.8414 0.51891-4.1231 3.7353-15.818 5.4922-15.597 1.0307 0.12949 2.6528 0.48935 2.6059 0.87125-0.09726 0.76282-1.2835 5.2664-1.7642 9.0849-0.672 5.3442 1.685 10.953 1.6085 11.565-0.08164 0.64848-0.93144 0.6203-1.4286 0.5581l-5.0779-0.64136zm6.1695-32.068c2.3662 0.29819 4.0826 2.3752 3.7857 4.742-0.29915 2.3665-2.4764 3.9545-4.8808 3.6519-2.2916-0.28864-3.9641-2.3987-3.6752-4.6894 0.29247-2.3286 2.4039-4.0036 4.7703-3.7045z"/></g><g><g><path d="m83.395 41.022c1e-3 2.208 0.27 4.129 1.236 6.135 0.591 1.228 2.316 1.544 3.42 0.897 1.245-0.729 1.488-2.193 0.897-3.42-0.621-1.288-0.553-2.092-0.554-3.611-1e-3 -3.225-5.001-3.226-4.999-1e-3z"/></g></g><g><g><g><path class="microstories-logo-letter" d="m98.906 42.385c4.36 2.711-3.235 4.955-4.97 5.28-1.148 0.215-2.791 0.336-3.896-0.15-2.014-0.886-0.729-3.871-0.949-5.598-0.402-3.153-5.407-3.192-5 0 0.437 3.429-1.13 7.118 2.568 9.389 3.068 1.884 6.562 1.676 9.968 0.898 3.022-0.69 6.039-2.264 7.75-4.912 2.025-3.136-0.125-7.47-2.946-9.224-2.748-1.708-5.256 2.619-2.525 4.317z"/></g></g><g><g><path class="microstories-logo-letter" d="m100.91 42.229c-0.751-0.066 0.268 0.192-0.473-0.146 0.453 0.206-0.406-0.4-0.075-0.054-0.077-0.097-0.155-0.193-0.232-0.29 0.123 0.228 0.099 0.153-0.073-0.225 0.054 0.133 0.085 0.276 0.118 0.416 0.124 0.53-0.058-0.62-5e-3 -0.068 0.015 0.153 0.02 0.307 0.025 0.46 0.011 0.295 5e-3 0.592 5e-3 0.887-2e-3 1.363 1.139 2.5 2.5 2.5 1.365 0 2.498-1.137 2.5-2.5 2e-3 -1.043 0.021-2.173-0.374-3.154-0.711-1.764-2.035-2.66-3.917-2.827-1.359-0.121-2.5 1.229-2.5 2.5 1e-3 1.455 1.144 2.381 2.501 2.501z"/></g></g><g><g><path class="microstories-logo-letter" d="m99.106 41.122c0.025 1.563 0.343 3.104 0.586 4.643 0.213 1.348 1.874 2.077 3.075 1.746 1.423-0.391 1.958-1.73 1.746-3.075-0.205-1.299-0.388-2.072-0.408-3.313-0.021-1.362-1.121-2.5-2.5-2.5-1.345-1e-3 -2.52 1.136-2.499 2.499z"/></g></g><g><g><path class="microstories-logo-letter" d="m88.948 46.025c-0.772-1.612-0.467-3.575-0.454-5.302 0.024-3.226-4.976-3.223-5 0-0.021 2.753-0.082 5.282 1.137 7.825 0.588 1.229 2.318 1.542 3.42 0.897 1.247-0.729 1.486-2.191 0.897-3.42z"/></g></g><g><g><path class="microstories-logo-letter" d="m83.086 40.656c-0.735 3.608-0.747 7.421 2.74 9.585 2.748 1.706 5.256-2.621 2.523-4.317-1.23-0.764-0.684-2.751-0.442-3.939 0.642-3.148-4.177-4.487-4.821-1.329z"/></g></g></g><g><g><path class="microstories-logo-letter" d="m104.72 54.97c-0.55-0.014-1.45-0.041-1.011-0.858 0.298-0.556 1.856-0.289 2.315-0.25-0.205-0.017 0.327 0.189 0.047 0.038-0.281-0.153-0.341-0.553-0.226-0.081 0.036 0.148 1e-3 0.874-0.08 0.973-0.228 0.282-1.378 0.186-2.005 0.184-2.418-0.01-2.418 3.74 0 3.75 2.474 0.01 4.709-0.367 5.612-2.989 0.43-1.251 0.279-2.843-0.335-4-0.604-1.136-1.851-1.469-3.014-1.625-2.544-0.34-5.386 0.625-6.044 3.354-0.762 3.163 1.872 5.184 4.74 5.254 2.421 0.059 2.415-3.691 1e-3 -3.75z"/></g></g></g></svg>