<?xml version="1.0" standalone="no"?>
<!DOCTYPE svg PUBLIC "-//W3C//DTD SVG 20010904//EN"
 "http://www.w3.org/TR/2001/REC-SVG-20010904/DTD/svg10.dtd">
<svg version="1.0" xmlns="http://www.w3.org/2000/svg"
 width="700.000000pt" height="700.000000pt" viewBox="0 0 700.000000 700.000000"
 preserveAspectRatio="xMidYMid meet">
<metadata>
Created by potrace 1.14, written by Peter Selinger 2001-2017
</metadata>
<g transform="translate(0.000000,700.000000) scale(0.100000,-0.100000)"
fill="#000000" stroke="none">
<path d="M3131 5026 l-1233 -1233 49 -34 c26 -19 321 -216 654 -437 l606 -404
-29 -111 c-55 -210 -87 -332 -118 -447 -17 -63 -42 -155 -55 -205 -13 -49 -36
-135 -50 -190 -55 -207 -155 -582 -167 -620 -6 -22 -13 -49 -15 -60 -2 -11
-19 -76 -38 -145 -19 -69 -43 -161 -55 -205 -12 -44 -28 -104 -36 -134 -8 -30
-13 -55 -11 -57 1 -2 558 552 1237 1231 679 679 1232 1236 1230 1238 -3 1
-295 196 -650 432 -355 236 -648 433 -652 439 -4 5 -4 14 -2 18 3 4 7 17 9 28
4 19 50 196 100 380 13 47 35 130 50 185 14 55 37 141 50 190 13 50 45 167 70
260 26 94 48 177 50 185 3 14 64 243 131 495 14 50 27 98 29 108 2 10 23 86
45 169 23 82 40 152 38 154 -2 2 -559 -552 -1237 -1230z"/>
</g>
</svg>
